<svg width="26" height="41" viewBox="0 0 26 41" fill="none" xmlns="http://www.w3.org/2000/svg">
<path d="M18.911 26.125C18.9011 24.9384 18.5846 23.7746 17.9923 22.7464C17.4 21.7182 16.5519 20.8605 15.5304 20.2567L25.938 2.21875L23.5052 0.8125L12.8501 19.2709C11.5424 18.9788 10.1823 19.0192 8.89432 19.3884C7.60629 19.7577 6.4314 20.444 5.4771 21.3845C0.212102 26.4625 0.619915 38.3341 0.639602 38.8375C0.654139 39.2006 0.80869 39.544 1.07085 39.7957C1.33302 40.0474 1.68244 40.1878 2.04585 40.1875H23.1269C23.4221 40.1875 23.7098 40.0946 23.9492 39.9221C24.1886 39.7495 24.3677 39.5059 24.461 39.2259C24.5544 38.9459 24.5572 38.6437 24.4692 38.3619C24.3812 38.0802 24.2068 37.8333 23.9707 37.6562C18.9926 33.9212 18.911 26.2009 18.911 26.125ZM11.7771 21.902C12.9026 21.9144 13.98 22.3602 14.7852 23.1468C15.5904 23.9334 16.0613 25.0001 16.0999 26.125C16.0999 26.1784 16.1027 26.4175 16.1238 26.7845L7.82695 23.0945C8.37347 22.6439 9.00414 22.3064 9.68228 22.1016C10.3604 21.8969 11.0725 21.8291 11.7771 21.902ZM16.7271 37.375C15.6031 36.2305 14.8866 34.7481 14.688 33.1562H11.8755C11.9763 34.6529 12.4438 36.1017 13.2368 37.375H10.1107C9.53238 35.55 9.18052 33.6608 9.06304 31.75H6.25054C6.34123 33.6551 6.65509 35.543 7.1857 37.375H3.43804C3.48163 34.7931 3.84585 29.0894 5.97351 25.3473L16.5668 30.0583C17.0758 32.7011 18.1609 35.1992 19.7449 37.375H16.7271Z" fill="black"/>
</svg>
