<svg width="31" height="39" viewBox="0 0 31 39" fill="none" xmlns="http://www.w3.org/2000/svg">
<path d="M15.5 0.75C10.3306 0.75 6.125 4.95563 6.125 10.125V15.75H4.25C3.25544 15.75 2.30161 16.1451 1.59835 16.8484C0.895088 17.5516 0.5 18.5054 0.5 19.5V34.5C0.5 35.4946 0.895088 36.4484 1.59835 37.1516C2.30161 37.8549 3.25544 38.25 4.25 38.25H26.75C27.7446 38.25 28.6984 37.8549 29.4016 37.1516C30.1049 36.4484 30.5 35.4946 30.5 34.5V19.5C30.5 18.5054 30.1049 17.5516 29.4016 16.8484C28.6984 16.1451 27.7446 15.75 26.75 15.75H24.875V10.125C24.875 4.95563 20.6694 0.75 15.5 0.75ZM9.875 10.125C9.875 7.02375 12.3987 4.5 15.5 4.5C18.6012 4.5 21.125 7.02375 21.125 10.125V15.75H9.875V10.125ZM17.375 30.2306V34.5H13.625V30.2306C12.9695 29.8552 12.4431 29.29 12.1153 28.6094C11.7875 27.9288 11.6737 27.1649 11.7888 26.4183C11.9039 25.6717 12.2426 24.9776 12.7602 24.4274C13.2778 23.8772 13.95 23.4967 14.6881 23.3362C15.2364 23.215 15.8049 23.2184 16.3517 23.3462C16.8985 23.4739 17.4097 23.7228 17.8475 24.0744C18.2853 24.426 18.6386 24.8714 18.8813 25.3778C19.1241 25.8841 19.2501 26.4385 19.25 27C19.2489 27.6558 19.075 28.2997 18.7459 28.8668C18.4167 29.434 17.9439 29.9044 17.375 30.2306Z" fill="black"/>
</svg>
